<svg xmlns="http://www.w3.org/2000/svg" width="54.293" height="52.133" viewBox="0 0 54.293 52.133">
  <g id="Group_9989" data-name="Group 9989" transform="translate(0.25 0.25)">
    <g id="Group_9976" data-name="Group 9976" transform="translate(17.304 22.743)">
      <path id="Path_8699" data-name="Path 8699" d="M3149.913,974.318a6.05,6.05,0,0,1-1.182-.208,5.491,5.491,0,0,1-.986-.329l.017-1.823a8.889,8.889,0,0,0,1.384.418,6.543,6.543,0,0,0,1.542.192,2.664,2.664,0,0,0,1.855-.632,2.07,2.07,0,0,0,.7-1.609,2.752,2.752,0,0,0-.2-1.085,1.985,1.985,0,0,0-.553-.765,8.9,8.9,0,0,0-1.594-.874l-1.165-.542a4.652,4.652,0,0,1-2.068-1.639,4.242,4.242,0,0,1-.588-2.28,3.571,3.571,0,0,1,.864-2.388,3.684,3.684,0,0,1,1.969-1.206l.011-1.657h1.884l-.008,1.552a4.44,4.44,0,0,1,2.118.6v1.841a4.526,4.526,0,0,0-1.2-.553,4.815,4.815,0,0,0-1.5-.267,2.153,2.153,0,0,0-1.584.573,1.982,1.982,0,0,0-.577,1.471,2.4,2.4,0,0,0,.207,1.006,2.118,2.118,0,0,0,.592.77,8.306,8.306,0,0,0,1.5.849l.908.424a5.422,5.422,0,0,1,2.251,1.762,4.64,4.64,0,0,1,.711,2.67,3.327,3.327,0,0,1-.953,2.354,3.93,3.93,0,0,1-2.439,1.238l0,1.676h-1.9Z" transform="translate(-3147.076 -957.891)" fill="#292d83" stroke="#292d83" stroke-width="0.5"/>
    </g>
    <g id="Group_9977" data-name="Group 9977" transform="translate(0 11.823)">
      <path id="Path_8700" data-name="Path 8700" d="M3128.4,972.429c-17.635,0-21.358-8.55-21.375-15.723a21.374,21.374,0,0,1,4.3-12.675l8.292-11.151a.648.648,0,0,1,.52-.261h16.522a.647.647,0,0,1,.52.261l5.837,7.851a.648.648,0,0,1-1.04.773l-5.643-7.589h-15.87l-8.1,10.889a20.064,20.064,0,0,0-4.047,11.9c.023,9.44,6.966,14.43,20.079,14.43,6.78,0,9.625-.134,9.653-.135a.648.648,0,0,1,.063,1.294C3138.091,972.294,3135.222,972.429,3128.4,972.429Z" transform="translate(-3107.028 -932.619)" fill="#292d83" stroke="#292d83" stroke-width="0.5"/>
    </g>
    <g id="Group_9978" data-name="Group 9978" transform="translate(10.716 8.493)">
      <path id="Path_8701" data-name="Path 8701" d="M3151.447,929.538h-17.915a1.7,1.7,0,0,1-1.7-1.7v-1.224a1.7,1.7,0,0,1,1.7-1.7h17.915a1.7,1.7,0,0,1,1.7,1.7v1.224A1.7,1.7,0,0,1,3151.447,929.538Zm-17.915-3.33a.411.411,0,0,0-.405.4v1.224a.411.411,0,0,0,.405.4h17.915a.41.41,0,0,0,.405-.4v-1.224a.41.41,0,0,0-.405-.4Z" transform="translate(-3131.83 -924.911)" fill="#292d83" stroke="#292d83" stroke-width="0.5"/>
    </g>
    <g id="Group_9979" data-name="Group 9979" transform="translate(7.765)">
      <path id="Path_8702" data-name="Path 8702" d="M3146.21,915.044H3131.2a.648.648,0,0,1-.451-.183l-5.551-5.38a.648.648,0,0,1-.008-.924l1.993-1.992a4.472,4.472,0,0,1,6.325,0l1.15,1.15.249-.248a5.371,5.371,0,0,1,7.6,0l.249.249,1.15-1.15a4.477,4.477,0,0,1,6.325,0l1.992,1.992a.648.648,0,0,1-.007.924l-5.55,5.38A.65.65,0,0,1,3146.21,915.044Zm-14.749-1.3h14.487l4.89-4.739-1.527-1.527a3.177,3.177,0,0,0-4.492,0h0l-1.608,1.608a.648.648,0,0,1-.917,0l-.707-.707a4.075,4.075,0,0,0-5.764,0l-.707.707a.647.647,0,0,1-.458.19h0a.646.646,0,0,1-.458-.19l-1.608-1.608a3.177,3.177,0,0,0-4.492,0l-1.527,1.527Zm12.9-6.724h0Z" transform="translate(-3124.999 -905.255)" fill="#292d83" stroke="#292d83" stroke-width="0.5"/>
    </g>
    <g id="Group_9980" data-name="Group 9980" transform="translate(30.412 19.672)">
      <path id="Path_8703" data-name="Path 8703" d="M3200.147,982.61h-22.086a.648.648,0,0,1-.648-.648V951.433a.648.648,0,0,1,.648-.648h22.086a.648.648,0,0,1,.648.648v30.529A.648.648,0,0,1,3200.147,982.61Zm-21.437-1.3H3199.5V952.081h-20.789Z" transform="translate(-3177.413 -950.785)" fill="#292d83" stroke="#292d83" stroke-width="0.5"/>
    </g>
    <g id="Group_9981" data-name="Group 9981" transform="translate(33.51 22.773)">
      <path id="Path_8704" data-name="Path 8704" d="M3201.121,962.755h-15.888a.648.648,0,0,1-.648-.648v-3.5a.648.648,0,0,1,.648-.648h15.888a.648.648,0,0,1,.648.648v3.5A.648.648,0,0,1,3201.121,962.755Zm-15.24-1.3h14.592v-2.2h-14.592Z" transform="translate(-3184.585 -957.962)" fill="#292d83" stroke="#292d83" stroke-width="0.5"/>
    </g>
    <g id="Group_9982" data-name="Group 9982" transform="translate(33.51 31.689)">
      <path id="Path_8705" data-name="Path 8705" d="M3201.121,995.1h-15.888a.648.648,0,0,1-.648-.648v-15.21a.648.648,0,0,1,.648-.648h15.888a.648.648,0,0,1,.648.648v15.21A.648.648,0,0,1,3201.121,995.1Zm-15.24-1.3h14.592V979.894h-14.592Z" transform="translate(-3184.585 -978.598)" fill="#292d83" stroke="#292d83" stroke-width="0.5"/>
    </g>
    <g id="Group_9983" data-name="Group 9983" transform="translate(37.497 35.442)">
      <path id="Path_8706" data-name="Path 8706" d="M3194.461,1000.037a.648.648,0,0,1-.648-.648V987.932a.648.648,0,1,1,1.3,0v11.457A.648.648,0,0,1,3194.461,1000.037Z" transform="translate(-3193.813 -987.284)" fill="#292d83" stroke="#292d83" stroke-width="0.5"/>
    </g>
    <g id="Group_9984" data-name="Group 9984" transform="translate(41.454 31.689)">
      <path id="Path_8707" data-name="Path 8707" d="M3203.619,995.209a.648.648,0,0,1-.648-.648V979.246a.648.648,0,1,1,1.3,0v15.315A.648.648,0,0,1,3203.619,995.209Z" transform="translate(-3202.971 -978.598)" fill="#292d83" stroke="#292d83" stroke-width="0.5"/>
    </g>
    <g id="Group_9985" data-name="Group 9985" transform="translate(45.411 31.794)">
      <path id="Path_8708" data-name="Path 8708" d="M3212.777,995.452a.648.648,0,0,1-.648-.648V979.489a.648.648,0,0,1,1.3,0V994.8A.648.648,0,0,1,3212.777,995.452Z" transform="translate(-3212.129 -978.841)" fill="#292d83" stroke="#292d83" stroke-width="0.5"/>
    </g>
    <g id="Group_9986" data-name="Group 9986" transform="translate(33.51 35.39)">
      <path id="Path_8709" data-name="Path 8709" d="M3201.121,988.459h-15.888a.648.648,0,0,1,0-1.3h15.888a.648.648,0,0,1,0,1.3Z" transform="translate(-3184.585 -987.163)" fill="#292d83" stroke="#292d83" stroke-width="0.5"/>
    </g>
    <g id="Group_9987" data-name="Group 9987" transform="translate(33.51 39.347)">
      <path id="Path_8710" data-name="Path 8710" d="M3201.121,997.617h-15.888a.648.648,0,0,1,0-1.3h15.888a.648.648,0,0,1,0,1.3Z" transform="translate(-3184.585 -996.321)" fill="#292d83" stroke="#292d83" stroke-width="0.5"/>
    </g>
    <g id="Group_9988" data-name="Group 9988" transform="translate(33.51 43.304)">
      <path id="Path_8711" data-name="Path 8711" d="M3201.121,1006.775h-15.888a.648.648,0,0,1,0-1.3h15.888a.648.648,0,0,1,0,1.3Z" transform="translate(-3184.585 -1005.479)" fill="#292d83" stroke="#292d83" stroke-width="0.5"/>
    </g>
  </g>
</svg>
