<svg xmlns="http://www.w3.org/2000/svg" width="26.258" height="25.077" viewBox="0 0 26.258 25.077">
  <g id="Group_10259" data-name="Group 10259" transform="translate(-345.948 -11.256)">
    <path id="Op_component_1" data-name="Op component 1" d="M10.54,21.08A10.54,10.54,0,1,1,21.08,10.54,10.552,10.552,0,0,1,10.54,21.08Zm0-19.07a8.53,8.53,0,1,0,8.53,8.53A8.539,8.539,0,0,0,10.54,2.01Z" transform="translate(346.448 11.756)" fill="#282c82" stroke="#282c82" stroke-width="1"/>
    <path id="Op_component_2" data-name="Op component 2" d="M1791.937,37.855l6.122,6.121a.962.962,0,1,1-1.361,1.361l-6.123-6.122a.962.962,0,0,1,1.361-1.36Z" transform="translate(-1426.724 -9.787)" fill="#282c82" stroke="#282c82" stroke-width="1"/>
  </g>
</svg>
