<svg id="Group_10213" data-name="Group 10213" xmlns="http://www.w3.org/2000/svg" width="25.8" height="25.7" viewBox="0 0 25.8 25.7">
  <path id="Path_8773" data-name="Path 8773" d="M5.7,13.9H11V31H5.7ZM8.4,5.3A3.1,3.1,0,1,1,5.3,8.4,3.1,3.1,0,0,1,8.4,5.3" transform="translate(-5.3 -5.3)" fill="#fff"/>
  <path id="Path_8774" data-name="Path 8774" d="M14.4,13.9h5.1v2.3h.1a5.6,5.6,0,0,1,5.1-2.8c5.4,0,6.4,3.6,6.4,8.2V31H25.7V22.7c0-2,0-4.6-2.8-4.6s-3.2,2.2-3.2,4.4V31H14.4Z" transform="translate(-5.3 -5.3)" fill="#fff"/>
</svg>
