<svg xmlns="http://www.w3.org/2000/svg" width="17.969" height="17.247" viewBox="0 0 17.969 17.247">
  <g id="Group_10365" data-name="Group 10365" transform="translate(-1579.643 -11)">
    <path id="Op_component_1" data-name="Op component 1" d="M1785.64,41.19a7.55,7.55,0,1,1,7.55-7.55A7.559,7.559,0,0,1,1785.64,41.19Zm0-13.66a6.11,6.11,0,1,0,6.11,6.11A6.117,6.117,0,0,0,1785.64,27.53Z" transform="translate(-198.446 -15.09)" fill="#fff"/>
    <path id="Op_component_2" data-name="Op component 2" d="M1791.471,37.775l4.386,4.385a.689.689,0,0,1-.975.975l-4.386-4.385a.689.689,0,1,1,.975-.974Z" transform="translate(-198.446 -15.09)" fill="#fff"/>
  </g>
</svg>
