<svg id="Group_10207" data-name="Group 10207" xmlns="http://www.w3.org/2000/svg" width="28.197" height="28.197" viewBox="0 0 28.197 28.197">
  <path id="Path_8756" data-name="Path 8756" d="M76.3,64.936c3.764,0,4.21.015,5.693.08a7.98,7.98,0,0,1,2.617.482,4.663,4.663,0,0,1,2.675,2.675,7.785,7.785,0,0,1,.482,2.617c.066,1.484.08,1.93.08,5.693s-.015,4.21-.08,5.693a7.979,7.979,0,0,1-.482,2.617,4.663,4.663,0,0,1-2.675,2.675,7.785,7.785,0,0,1-2.617.482c-1.484.066-1.929.08-5.693.08s-4.21-.015-5.693-.08a7.979,7.979,0,0,1-2.617-.482,4.663,4.663,0,0,1-2.675-2.675,7.785,7.785,0,0,1-.482-2.617c-.066-1.484-.08-1.929-.08-5.693s.015-4.21.08-5.693a7.98,7.98,0,0,1,.482-2.617A4.663,4.663,0,0,1,67.988,65.5a7.784,7.784,0,0,1,2.617-.482c1.484-.066,1.929-.08,5.693-.08m0-2.536c-3.822,0-4.3.015-5.81.088a10.374,10.374,0,0,0-3.42.658,7.2,7.2,0,0,0-4.122,4.122,10.414,10.414,0,0,0-.658,3.42c-.073,1.5-.088,1.981-.088,5.81s.015,4.3.088,5.81a10.374,10.374,0,0,0,.658,3.42,7.2,7.2,0,0,0,4.122,4.122,10.414,10.414,0,0,0,3.42.658c1.5.073,1.981.088,5.81.088s4.3-.015,5.81-.088a10.374,10.374,0,0,0,3.42-.658,7.2,7.2,0,0,0,4.122-4.122,10.414,10.414,0,0,0,.658-3.42c.073-1.5.088-1.981.088-5.81s-.015-4.3-.088-5.81a10.374,10.374,0,0,0-.658-3.42,7.2,7.2,0,0,0-4.122-4.122,10.414,10.414,0,0,0-3.42-.658c-1.5-.073-1.981-.088-5.81-.088" transform="translate(-62.2 -62.4)" fill="#fff"/>
  <path id="Path_8757" data-name="Path 8757" d="M163.336,156.2a7.236,7.236,0,1,0,7.236,7.236,7.236,7.236,0,0,0-7.236-7.236m0,11.928a4.692,4.692,0,1,1,4.692-4.692,4.692,4.692,0,0,1-4.692,4.692" transform="translate(-149.237 -149.345)" fill="#fff"/>
  <path id="Path_8758" data-name="Path 8758" d="M338.277,130.8a1.692,1.692,0,1,1,0-.007" transform="translate(-314.97 -124.225)" fill="#fff"/>
</svg>
