<svg xmlns="http://www.w3.org/2000/svg" width="26.066" height="21.194" viewBox="0 0 26.066 21.194">
  <g id="Group_10208" data-name="Group 10208" transform="translate(0)">
    <path id="Path_8765" data-name="Path 8765" d="M83.1,119.526A15.108,15.108,0,0,0,98.308,104.32q0-.344-.01-.688a10.87,10.87,0,0,0,2.668-2.772,10.671,10.671,0,0,1-3.075.844,5.367,5.367,0,0,0,2.355-2.96,10.714,10.714,0,0,1-3.4,1.292,5.347,5.347,0,0,0-9.109,4.878,15.175,15.175,0,0,1-11.016-5.586,5.347,5.347,0,0,0,1.657,7.139,5.3,5.3,0,0,1-2.428-.667v.073a5.347,5.347,0,0,0,4.284,5.242,5.336,5.336,0,0,1-2.418.094,5.347,5.347,0,0,0,4.992,3.71,10.725,10.725,0,0,1-6.639,2.293,10.868,10.868,0,0,1-1.272-.073,15.133,15.133,0,0,0,8.192,2.4" transform="translate(-74.9 -98.342)" fill="#fff"/>
  </g>
</svg>
