<svg id="Group_9603" data-name="Group 9603" xmlns="http://www.w3.org/2000/svg" width="32.348" height="22.644" viewBox="0 0 32.348 22.644">
  <path id="Path_8648" data-name="Path 8648" d="M116.222,88.575a4.051,4.051,0,0,0-2.86-2.86c-2.523-.676-12.638-.676-12.638-.676s-10.115,0-12.638.676a4.052,4.052,0,0,0-2.86,2.86,45.191,45.191,0,0,0,0,15.572,4.051,4.051,0,0,0,2.86,2.86c2.523.676,12.638.676,12.638.676s10.115,0,12.638-.676a4.051,4.051,0,0,0,2.86-2.86,45.19,45.19,0,0,0,0-15.572Z" transform="translate(-84.55 -85.039)" fill="#fff"/>
  <path id="Path_8649" data-name="Path 8649" d="M133.144,119.041l8.4-4.852-8.4-4.852Z" transform="translate(-120.205 -102.867)" fill="#292d83"/>
</svg>
