<svg xmlns="http://www.w3.org/2000/svg" width="58.661" height="48.67" viewBox="0 0 58.661 48.67">
  <g id="Group_9975" data-name="Group 9975" transform="translate(0.25 0.333)">
    <g id="Group_9965" data-name="Group 9965" transform="translate(41.284 3.43)">
      <path id="Path_8689" data-name="Path 8689" d="M3213.013,392.733l-5.482-2.182,10.337-25.97,5.482,2.182Zm-3.521-3.027,2.676,1.065,9.22-23.163-2.677-1.065Z" transform="translate(-3207.531 -364.581)" fill="#292d83" stroke="#292d83" stroke-width="0.5"/>
    </g>
    <g id="Group_9966" data-name="Group 9966" transform="translate(39.118 27.997)">
      <path id="Path_8690" data-name="Path 8690" d="M3206.849,423.386a2.174,2.174,0,0,1-.8-.155l-1.448-.576a2.174,2.174,0,0,1-1.214-2.82l2.571-6.457,5.482,2.182-2.57,6.457a2.176,2.176,0,0,1-2.017,1.369Zm-1.693-2.135,1.449.576a.661.661,0,0,0,.858-.37l2.012-5.054-2.676-1.065-2.012,5.054a.663.663,0,0,0,.37.858Z" transform="translate(-3203.229 -413.377)" fill="#292d83" stroke="#292d83" stroke-width="0.5"/>
    </g>
    <g id="Group_9967" data-name="Group 9967" transform="translate(39.098 36.105)">
      <path id="Path_8691" data-name="Path 8691" d="M3203.944,435.1a.744.744,0,0,1-.279-.054.755.755,0,0,1-.422-.981l1.637-4.111a.755.755,0,0,1,1.4.558l-1.637,4.111A.755.755,0,0,1,3203.944,435.1Z" transform="translate(-3203.189 -429.482)" fill="#292d83" stroke="#292d83" stroke-width="0.5"/>
    </g>
    <g id="Group_9968" data-name="Group 9968" transform="translate(51.063)">
      <path id="Path_8692" data-name="Path 8692" d="M3232.437,364.783l-5.483-2.182,1.379-3.466a2.175,2.175,0,0,1,2.82-1.214l1.448.576a2.175,2.175,0,0,1,1.214,2.82Zm-3.521-3.027,2.676,1.065.821-2.063a.662.662,0,0,0-.369-.858l-1.448-.576a.662.662,0,0,0-.859.37Z" transform="translate(-3226.954 -357.767)" fill="#292d83" stroke="#292d83" stroke-width="0.5"/>
    </g>
    <g id="Group_9969" data-name="Group 9969" transform="translate(0 13.612)">
      <path id="Path_8693" data-name="Path 8693" d="M3179.015,419.28h-53.486V384.8h44.49a.755.755,0,0,1,0,1.51h-42.98V417.77H3177.5V395.532a.755.755,0,1,1,1.51,0Z" transform="translate(-3125.529 -384.805)" fill="#292d83" stroke="#292d83" stroke-width="0.5"/>
    </g>
    <g id="Group_9970" data-name="Group 9970" transform="translate(9.112 40.216)">
      <path id="Path_8694" data-name="Path 8694" d="M3170.838,439.158h-26.455a.755.755,0,0,1,0-1.51h26.455a.755.755,0,0,1,0,1.51Z" transform="translate(-3143.628 -437.648)" fill="#292d83" stroke="#292d83" stroke-width="0.5"/>
    </g>
    <g id="Group_9971" data-name="Group 9971" transform="translate(21.34 25.605)">
      <path id="Path_8695" data-name="Path 8695" d="M3182.9,410.136h-14.227a.755.755,0,0,1,0-1.51H3182.9a.755.755,0,1,1,0,1.51Z" transform="translate(-3167.917 -408.626)" fill="#292d83" stroke="#292d83" stroke-width="0.5"/>
    </g>
    <g id="Group_9972" data-name="Group 9972" transform="translate(21.34 20.161)">
      <path id="Path_8696" data-name="Path 8696" d="M3182.9,399.322h-14.227a.755.755,0,0,1,0-1.51H3182.9a.755.755,0,1,1,0,1.51Z" transform="translate(-3167.917 -397.812)" fill="#292d83" stroke="#292d83" stroke-width="0.5"/>
    </g>
    <g id="Group_9973" data-name="Group 9973" transform="translate(21.34 31.05)">
      <path id="Path_8697" data-name="Path 8697" d="M3182.9,420.951h-14.227a.755.755,0,0,1,0-1.51H3182.9a.755.755,0,1,1,0,1.51Z" transform="translate(-3167.917 -419.441)" fill="#292d83" stroke="#292d83" stroke-width="0.5"/>
    </g>
    <g id="Group_9974" data-name="Group 9974" transform="translate(10.98 20.05)">
      <path id="Path_8698" data-name="Path 8698" d="M3153.311,406.493a2.978,2.978,0,0,0-.681-1.87,3.462,3.462,0,0,0-1.632-1.039c-.146-.052-.3-.1-.447-.149a4.832,4.832,0,0,1-1.417-.631,1.887,1.887,0,0,1-.74-1.486,1.931,1.931,0,0,1,3.863,0v.176h1.053v-.176a2.988,2.988,0,0,0-2.458-2.935v-.789H3149.8v.789a2.988,2.988,0,0,0-2.458,2.935,3.1,3.1,0,0,0,2.181,2.861c.181.067.366.128.55.188a7.924,7.924,0,0,1,.938.351,1.974,1.974,0,0,1,1.248,1.776,1.932,1.932,0,0,1-3.863.039l0-.172h-1.053l0,.178a3,3,0,0,0,2.458,2.891v.789h1.053v-.789A2.987,2.987,0,0,0,3153.311,406.493Z" transform="translate(-3147.339 -397.593)" fill="#292d83" stroke="#292d83" stroke-width="0.5"/>
    </g>
  </g>
</svg>
