<svg xmlns="http://www.w3.org/2000/svg" width="53.759" height="47.913" viewBox="0 0 53.759 47.913">
  <g id="Group_10035" data-name="Group 10035" transform="translate(0.25 0.25)">
    <g id="Group_10005" data-name="Group 10005" transform="translate(0 21.322)">
      <path id="Path_8725" data-name="Path 8725" d="M3054.328,2096.3h-5.265v-26.091h5.265Zm-3.9-1.365h2.536v-23.362h-2.536Z" transform="translate(-3049.063 -2070.213)" fill="#292d83" stroke="#292d83" stroke-width="0.5"/>
    </g>
    <g id="Group_10006" data-name="Group 10006" transform="translate(40.112 30.813)">
      <path id="Path_8726" data-name="Path 8726" d="M3150.393,2107.678h-13.147v-16.6h13.147Zm-11.782-1.365h10.417v-13.871h-10.417Z" transform="translate(-3137.246 -2091.078)" fill="#292d83" stroke="#292d83" stroke-width="0.5"/>
    </g>
    <g id="Group_10007" data-name="Group 10007" transform="translate(43.99 26.17)">
      <path id="Path_8727" data-name="Path 8727" d="M3151.163,2086.878h-5.392v-6.007h5.392Zm-4.027-1.365h2.662v-3.278h-2.662Z" transform="translate(-3145.771 -2080.871)" fill="#292d83" stroke="#292d83" stroke-width="0.5"/>
    </g>
    <g id="Group_10008" data-name="Group 10008" transform="translate(22.938 31.006)">
      <path id="Path_8728" data-name="Path 8728" d="M3108.084,2107.91h-8.594V2091.5h8.594Zm-7.23-1.365h5.865v-13.677h-5.865Z" transform="translate(-3099.49 -2091.504)" fill="#292d83" stroke="#292d83" stroke-width="0.5"/>
    </g>
    <g id="Group_10009" data-name="Group 10009" transform="translate(7.642 3.891)">
      <path id="Path_8729" data-name="Path 8729" d="M3078.782,2037.906h-12.918v-6.012h12.918Zm-11.554-1.365h10.189v-3.283h-10.189Z" transform="translate(-3065.864 -2031.894)" fill="#292d83" stroke="#292d83" stroke-width="0.5"/>
    </g>
    <g id="Group_10010" data-name="Group 10010" transform="translate(30.168 24.105)">
      <path id="Path_8730" data-name="Path 8730" d="M3126.693,2098.958h-1.365V2077.7h-8.58v21.261h-1.365v-22.625h11.309Z" transform="translate(-3115.384 -2076.332)" fill="#292d83" stroke="#292d83" stroke-width="0.5"/>
    </g>
    <g id="Group_10011" data-name="Group 10011" transform="translate(32.059 14.376)">
      <path id="Path_8731" data-name="Path 8731" d="M3127.068,2066.038h-7.526v-11.094h7.526Zm-6.161-1.365h4.8v-8.364h-4.8Z" transform="translate(-3119.542 -2054.944)" fill="#292d83" stroke="#292d83" stroke-width="0.5"/>
    </g>
    <g id="Group_10012" data-name="Group 10012" transform="translate(35.139 6.324)">
      <path id="Path_8732" data-name="Path 8732" d="M3127,2046.658a.682.682,0,0,1-.682-.682v-8.053a.682.682,0,1,1,1.365,0v8.053A.682.682,0,0,1,3127,2046.658Z" transform="translate(-3126.314 -2037.241)" fill="#292d83" stroke="#292d83" stroke-width="0.5"/>
    </g>
    <g id="Group_10013" data-name="Group 10013" transform="translate(11.473 0)">
      <path id="Path_8733" data-name="Path 8733" d="M3079.542,2027.912h-1.365V2024.7h-2.527v3.209h-1.364v-4.573h5.256Z" transform="translate(-3074.286 -2023.339)" fill="#292d83" stroke="#292d83" stroke-width="0.5"/>
    </g>
    <g id="Group_10014" data-name="Group 10014" transform="translate(8.616 13.306)">
      <rect id="Rectangle_540" data-name="Rectangle 540" width="1.365" height="1.946" transform="translate(0)" fill="#292d83" stroke="#292d83" stroke-width="0.5"/>
    </g>
    <g id="Group_10015" data-name="Group 10015" transform="translate(13.42 13.306)">
      <rect id="Rectangle_541" data-name="Rectangle 541" width="1.365" height="1.946" fill="#292d83" stroke="#292d83" stroke-width="0.5"/>
    </g>
    <g id="Group_10016" data-name="Group 10016" transform="translate(18.223 13.306)">
      <rect id="Rectangle_542" data-name="Rectangle 542" width="1.365" height="1.946" transform="translate(0)" fill="#292d83" stroke="#292d83" stroke-width="0.5"/>
    </g>
    <g id="Group_10017" data-name="Group 10017" transform="translate(8.616 18.785)">
      <rect id="Rectangle_543" data-name="Rectangle 543" width="1.365" height="1.946" transform="translate(0 0)" fill="#292d83" stroke="#292d83" stroke-width="0.5"/>
    </g>
    <g id="Group_10018" data-name="Group 10018" transform="translate(13.42 18.785)">
      <rect id="Rectangle_544" data-name="Rectangle 544" width="1.365" height="1.946" transform="translate(0 0)" fill="#292d83" stroke="#292d83" stroke-width="0.5"/>
    </g>
    <g id="Group_10019" data-name="Group 10019" transform="translate(18.223 18.785)">
      <rect id="Rectangle_545" data-name="Rectangle 545" width="1.365" height="1.946" transform="translate(0 0)" fill="#292d83" stroke="#292d83" stroke-width="0.5"/>
    </g>
    <g id="Group_10020" data-name="Group 10020" transform="translate(8.616 24.264)">
      <rect id="Rectangle_546" data-name="Rectangle 546" width="1.365" height="1.946" transform="translate(0 0)" fill="#292d83" stroke="#292d83" stroke-width="0.5"/>
    </g>
    <g id="Group_10021" data-name="Group 10021" transform="translate(13.42 24.264)">
      <rect id="Rectangle_547" data-name="Rectangle 547" width="1.365" height="1.946" transform="translate(0 0)" fill="#292d83" stroke="#292d83" stroke-width="0.5"/>
    </g>
    <g id="Group_10022" data-name="Group 10022" transform="translate(18.223 24.264)">
      <rect id="Rectangle_548" data-name="Rectangle 548" width="1.365" height="1.946" transform="translate(0 0)" fill="#292d83" stroke="#292d83" stroke-width="0.5"/>
    </g>
    <g id="Group_10023" data-name="Group 10023" transform="translate(8.616 29.743)">
      <rect id="Rectangle_549" data-name="Rectangle 549" width="1.365" height="1.946" transform="translate(0 0)" fill="#292d83" stroke="#292d83" stroke-width="0.5"/>
    </g>
    <g id="Group_10024" data-name="Group 10024" transform="translate(13.42 29.743)">
      <rect id="Rectangle_550" data-name="Rectangle 550" width="1.365" height="1.946" transform="translate(0 0)" fill="#292d83" stroke="#292d83" stroke-width="0.5"/>
    </g>
    <g id="Group_10025" data-name="Group 10025" transform="translate(18.223 29.743)">
      <rect id="Rectangle_551" data-name="Rectangle 551" width="1.365" height="1.946" transform="translate(0 0)" fill="#292d83" stroke="#292d83" stroke-width="0.5"/>
    </g>
    <g id="Group_10026" data-name="Group 10026" transform="translate(8.616 35.222)">
      <rect id="Rectangle_552" data-name="Rectangle 552" width="1.365" height="1.946" transform="translate(0 0)" fill="#292d83" stroke="#292d83" stroke-width="0.5"/>
    </g>
    <g id="Group_10027" data-name="Group 10027" transform="translate(13.42 35.222)">
      <rect id="Rectangle_553" data-name="Rectangle 553" width="1.365" height="1.946" transform="translate(0 0)" fill="#292d83" stroke="#292d83" stroke-width="0.5"/>
    </g>
    <g id="Group_10028" data-name="Group 10028" transform="translate(18.223 35.222)">
      <rect id="Rectangle_554" data-name="Rectangle 554" width="1.365" height="1.946" transform="translate(0 0)" fill="#292d83" stroke="#292d83" stroke-width="0.5"/>
    </g>
    <g id="Group_10029" data-name="Group 10029" transform="translate(8.616 40.701)">
      <rect id="Rectangle_555" data-name="Rectangle 555" width="1.365" height="1.946" transform="translate(0 0)" fill="#292d83" stroke="#292d83" stroke-width="0.5"/>
    </g>
    <g id="Group_10030" data-name="Group 10030" transform="translate(13.42 40.701)">
      <rect id="Rectangle_556" data-name="Rectangle 556" width="1.365" height="1.946" transform="translate(0 0)" fill="#292d83" stroke="#292d83" stroke-width="0.5"/>
    </g>
    <g id="Group_10031" data-name="Group 10031" transform="translate(18.223 40.701)">
      <rect id="Rectangle_557" data-name="Rectangle 557" width="1.365" height="1.946" transform="translate(0 0)" fill="#292d83" stroke="#292d83" stroke-width="0.5"/>
    </g>
    <g id="Group_10032" data-name="Group 10032" transform="translate(3.9 8.539)">
      <path id="Path_8734" data-name="Path 8734" d="M3078.04,2080.3h-1.365v-36.827H3059V2080.3h-1.365v-38.191h20.4Z" transform="translate(-3057.638 -2042.112)" fill="#292d83" stroke="#292d83" stroke-width="0.5"/>
    </g>
    <g id="Group_10033" data-name="Group 10033" transform="translate(0.682 46.048)">
      <rect id="Rectangle_558" data-name="Rectangle 558" width="51.895" height="1.365" transform="translate(0 0)" fill="#292d83" stroke="#292d83" stroke-width="0.5"/>
    </g>
    <g id="Group_10034" data-name="Group 10034" transform="translate(26.553 25.772)">
      <path id="Path_8735" data-name="Path 8735" d="M3108.119,2086.6a.682.682,0,0,1-.682-.682v-5.235a.682.682,0,0,1,1.365,0v5.235A.683.683,0,0,1,3108.119,2086.6Z" transform="translate(-3107.437 -2079.996)" fill="#292d83" stroke="#292d83" stroke-width="0.5"/>
    </g>
  </g>
</svg>
