<svg xmlns="http://www.w3.org/2000/svg" width="46.88" height="58.34" viewBox="0 0 46.88 58.34">
  <g id="Group_9996" data-name="Group 9996" transform="translate(0.266 0.25)">
    <g id="Group_9990" data-name="Group 9990" transform="translate(12.124)">
      <path id="Path_8712" data-name="Path 8712" d="M3124.573,1789.789a11.05,11.05,0,1,1,11.05-11.05A11.063,11.063,0,0,1,3124.573,1789.789Zm0-20.741a9.691,9.691,0,1,0,9.691,9.691A9.7,9.7,0,0,0,3124.573,1769.048Z" transform="translate(-3113.523 -1767.689)" fill="#292d83" stroke="#292d83" stroke-width="0.5"/>
    </g>
    <g id="Group_9991" data-name="Group 9991" transform="translate(20.8 6.204)">
      <path id="Path_8713" data-name="Path 8713" d="M3136.419,1788.1a1.066,1.066,0,0,0-.323-.783,2.819,2.819,0,0,0-1.073-.578,3.7,3.7,0,0,1-1.555-.831,1.865,1.865,0,0,1-.525-1.387,1.954,1.954,0,0,1,.484-1.371,2.084,2.084,0,0,1,1.331-.637v-1.127h.805v1.131a1.953,1.953,0,0,1,1.323.7,2.434,2.434,0,0,1,.471,1.571h-1a1.634,1.634,0,0,0-.321-1.05,1.075,1.075,0,0,0-.888-.4,1.073,1.073,0,0,0-1.2,1.173,1.072,1.072,0,0,0,.31.8,3.054,3.054,0,0,0,1.117.581,3.852,3.852,0,0,1,1.545.839,1.84,1.84,0,0,1,.5,1.364,1.867,1.867,0,0,1-.526,1.395,2.329,2.329,0,0,1-1.442.614v.979h-.8v-.974a2.334,2.334,0,0,1-1.438-.641,2.09,2.09,0,0,1-.541-1.608l.01-.026h.969a1.39,1.39,0,0,0,.4,1.119,1.456,1.456,0,0,0,.969.334,1.536,1.536,0,0,0,1.027-.313A1.078,1.078,0,0,0,3136.419,1788.1Z" transform="translate(-3132.675 -1781.383)" fill="#292d83" stroke="#292d83" stroke-width="0.5"/>
    </g>
    <g id="Group_9992" data-name="Group 9992" transform="translate(12.124 35.741)">
      <path id="Path_8714" data-name="Path 8714" d="M3124.573,1868.686a11.05,11.05,0,1,1,11.05-11.05A11.062,11.062,0,0,1,3124.573,1868.686Zm0-20.741a9.691,9.691,0,1,0,9.691,9.691A9.7,9.7,0,0,0,3124.573,1847.945Z" transform="translate(-3113.523 -1846.586)" fill="#292d83" stroke="#292d83" stroke-width="0.5"/>
    </g>
    <g id="Group_9993" data-name="Group 9993" transform="translate(19.312 42.434)">
      <path id="Path_8715" data-name="Path 8715" d="M3133.256,1865.741l2.379-4.38h1.48l-2.761,4.744h2.061v.813h-2.53v1.1h2.53v.806h-2.53v2.154h-1.3v-2.154H3130.1v-.806h2.478v-1.1H3130.1v-.813h2.055l-2.768-4.744h1.493Z" transform="translate(-3129.391 -1861.361)" fill="#292d83" stroke="#292d83" stroke-width="0.5"/>
    </g>
    <g id="Group_9994" data-name="Group 9994" transform="translate(36.557 11.052)">
      <path id="Path_8716" data-name="Path 8716" d="M3168.267,1827.823l-.808-1.093c.354-.262.7-.536,1.034-.815l.874,1.041C3169.013,1827.253,3168.644,1827.545,3168.267,1827.823Zm3.316-3.007-1.009-.91c.292-.323.578-.661.851-1l1.064.845C3172.2,1824.111,3171.894,1824.471,3171.583,1824.816Zm2.651-3.609-1.171-.69c.222-.376.435-.765.632-1.154l1.212.615C3174.7,1820.393,3174.47,1820.807,3174.234,1821.207Zm1.872-4.068-1.286-.44c.142-.416.272-.839.385-1.257l1.311.356C3176.4,1816.245,3176.258,1816.7,3176.106,1817.14Zm1.011-4.363-1.348-.171c.055-.431.1-.872.125-1.311l1.356.087C3177.22,1811.849,3177.175,1812.318,3177.117,1812.776Zm-1.238-4.375c-.032-.434-.078-.875-.138-1.309l1.347-.184c.063.462.113.93.147,1.393Zm-.731-4.141c-.118-.42-.253-.841-.4-1.253l1.281-.454c.156.44.3.89.425,1.338Zm-1.552-3.907c-.2-.389-.418-.775-.643-1.146l1.162-.7c.24.4.471.808.687,1.223Zm-2.306-3.515c-.275-.339-.565-.674-.861-1l1-.921c.316.342.624.7.917,1.061Zm-2.963-2.984q-.425-.349-.868-.677l.809-1.093q.471.348.922.719Z" transform="translate(-3167.459 -1792.086)" fill="#292d83" stroke="#292d83" stroke-width="0.5"/>
    </g>
    <g id="Group_9995" data-name="Group 9995" transform="translate(0 11.052)">
      <path id="Path_8717" data-name="Path 8717" d="M3095.742,1827.823c-.376-.278-.747-.57-1.1-.867l.875-1.041c.332.279.68.553,1.033.815Zm-3.316-3.007c-.311-.344-.616-.7-.906-1.07l1.064-.845c.273.343.559.681.85,1Zm-2.65-3.609c-.236-.4-.463-.814-.673-1.229l1.212-.615c.2.389.41.778.632,1.154Zm-1.872-4.068c-.152-.444-.29-.895-.411-1.34l1.311-.356c.114.417.244.84.385,1.257Zm-1.011-4.363c-.058-.458-.1-.928-.133-1.394l1.356-.087c.028.439.07.88.125,1.311Zm1.238-4.375-1.355-.1c.035-.463.084-.931.147-1.393l1.347.184C3088.208,1807.527,3088.161,1807.967,3088.129,1808.4Zm.731-4.141-1.308-.37c.127-.448.27-.9.426-1.338l1.281.454C3089.114,1803.419,3088.979,1803.841,3088.86,1804.26Zm1.552-3.907-1.206-.627c.216-.415.446-.826.687-1.223l1.163.7C3090.831,1799.579,3090.615,1799.965,3090.412,1800.354Zm2.306-3.515-1.056-.856c.293-.361.6-.718.917-1.061l1,.921C3093.283,1796.165,3092.994,1796.5,3092.719,1796.839Zm2.963-2.984-.863-1.05q.452-.371.922-.719l.809,1.093Q3096.106,1793.505,3095.682,1793.855Z" transform="translate(-3086.759 -1792.086)" fill="#292d83" stroke="#292d83" stroke-width="0.5"/>
    </g>
  </g>
</svg>
