<svg xmlns="http://www.w3.org/2000/svg" width="54.237" height="39.52" viewBox="0 0 54.237 39.52">
  <g id="Group_10004" data-name="Group 10004" transform="translate(0.25 0.25)">
    <g id="Group_9997" data-name="Group 9997" transform="translate(15.129 11.588)">
      <path id="Path_8718" data-name="Path 8718" d="M3125.575,706.107a11.739,11.739,0,1,1,11.739-11.739A11.752,11.752,0,0,1,3125.575,706.107Zm0-22.078a10.339,10.339,0,1,0,10.339,10.338A10.351,10.351,0,0,0,3125.575,684.029Z" transform="translate(-3113.836 -682.629)" fill="#292d83" stroke="#292d83" stroke-width="0.5"/>
    </g>
    <g id="Group_9998" data-name="Group 9998" transform="translate(23.118 15.052)">
      <path id="Path_8719" data-name="Path 8719" d="M3135.84,691.472a5.576,5.576,0,0,1,1.089.191,5.079,5.079,0,0,1,.908.3l-.016,1.679a8.168,8.168,0,0,0-1.274-.385,6.044,6.044,0,0,0-1.42-.176,2.456,2.456,0,0,0-1.709.581,1.908,1.908,0,0,0-.646,1.482,2.527,2.527,0,0,0,.186,1,1.829,1.829,0,0,0,.509.7,8.218,8.218,0,0,0,1.468.8l1.073.5a4.282,4.282,0,0,1,1.9,1.509,3.906,3.906,0,0,1,.541,2.1,3.291,3.291,0,0,1-.795,2.2,3.4,3.4,0,0,1-1.814,1.111l-.011,1.525H3134.1l.007-1.43a4.089,4.089,0,0,1-1.95-.557v-1.7a4.189,4.189,0,0,0,1.109.509,4.437,4.437,0,0,0,1.382.245,1.98,1.98,0,0,0,1.459-.527,1.823,1.823,0,0,0,.532-1.354,2.21,2.21,0,0,0-.19-.927,1.956,1.956,0,0,0-.546-.709,7.643,7.643,0,0,0-1.382-.781l-.836-.391a4.988,4.988,0,0,1-2.073-1.623,4.273,4.273,0,0,1-.655-2.459,3.061,3.061,0,0,1,.878-2.168,3.617,3.617,0,0,1,2.246-1.141l0-1.543h1.754Z" transform="translate(-3130.954 -690.05)" fill="#292d83" stroke="#292d83" stroke-width="0.5"/>
    </g>
    <g id="Group_9999" data-name="Group 9999" transform="translate(0 7.634)">
      <path id="Path_8720" data-name="Path 8720" d="M3135.157,705.542H3081.42V674.156h53.737Zm-52.337-1.4h50.937V675.556H3082.82Z" transform="translate(-3081.42 -674.156)" fill="#292d83" stroke="#292d83" stroke-width="0.5"/>
    </g>
    <g id="Group_10000" data-name="Group 10000" transform="translate(43.417 22.813)">
      <path id="Path_8721" data-name="Path 8721" d="M3175.705,709.2a1.259,1.259,0,1,1,1.258-1.258A1.26,1.26,0,0,1,3175.705,709.2Zm0-1.4a.142.142,0,1,0,.141.142A.142.142,0,0,0,3175.705,707.8Z" transform="translate(-3174.446 -706.68)" fill="#292d83" stroke="#292d83" stroke-width="0.5"/>
    </g>
    <g id="Group_10001" data-name="Group 10001" transform="translate(7.801 22.813)">
      <path id="Path_8722" data-name="Path 8722" d="M3099.394,709.2a1.259,1.259,0,1,1,1.258-1.258A1.26,1.26,0,0,1,3099.394,709.2Zm0-1.4a.142.142,0,1,0,.142.142A.142.142,0,0,0,3099.394,707.8Z" transform="translate(-3098.136 -706.68)" fill="#292d83" stroke="#292d83" stroke-width="0.5"/>
    </g>
    <g id="Group_10002" data-name="Group 10002" transform="translate(4.663 3.417)">
      <path id="Path_8723" data-name="Path 8723" d="M3135.821,670.038h-1.4v-3.517h-41.609v3.517h-1.4v-4.917h44.409Z" transform="translate(-3091.412 -665.121)" fill="#292d83" stroke="#292d83" stroke-width="0.5"/>
    </g>
    <g id="Group_10003" data-name="Group 10003" transform="translate(8.264)">
      <path id="Path_8724" data-name="Path 8724" d="M3136.334,661.917h-1.4V659.2h-34.408v2.717h-1.4V657.8h37.208Z" transform="translate(-3099.126 -657.8)" fill="#292d83" stroke="#292d83" stroke-width="0.5"/>
    </g>
  </g>
</svg>
