<svg id="Layer_1" data-name="Layer 1" xmlns="http://www.w3.org/2000/svg" viewBox="0 0 713.99 110.13"><defs><style>.cls-1{fill:#110c7a;}.cls-2{fill:#ff0001;}</style></defs><path class="cls-1" d="M426.63,353.73A7.83,7.83,0,0,1,427,355a.73.73,0,0,1-.17.69,1.39,1.39,0,0,1-.85.28c-.4,0-1,.06-1.67.06s-1.32,0-1.73,0a3.92,3.92,0,0,1-.95-.13.82.82,0,0,1-.46-.27,1.41,1.41,0,0,1-.22-.46L419,349.44H408.43L406.65,355a1.86,1.86,0,0,1-.23.51.92.92,0,0,1-.46.33,3.39,3.39,0,0,1-.89.16c-.38,0-.89.05-1.51.05a15.29,15.29,0,0,1-1.57-.07,1.18,1.18,0,0,1-.78-.31.86.86,0,0,1-.16-.71,8.23,8.23,0,0,1,.33-1.22l8.69-25a2.1,2.1,0,0,1,.3-.6,1.11,1.11,0,0,1,.55-.34,4.86,4.86,0,0,1,1.06-.16c.45,0,1,0,1.79,0s1.53,0,2,0a6,6,0,0,1,1.19.16,1.17,1.17,0,0,1,.61.36,1.87,1.87,0,0,1,.31.65ZM413.7,333.08h0l-4,12h8Z" transform="translate(-63.95 -253.14)"/><path class="cls-1" d="M442,328.31a9.14,9.14,0,0,1,0,1,2.64,2.64,0,0,1-.13.59.65.65,0,0,1-.2.28.41.41,0,0,1-.24.08,1,1,0,0,1-.34-.08l-.45-.16a6,6,0,0,0-.64-.16,4.48,4.48,0,0,0-.88-.08,2.43,2.43,0,0,0-1,.19,1.64,1.64,0,0,0-.7.58,2.81,2.81,0,0,0-.42,1.05,7.85,7.85,0,0,0-.13,1.58V335h3.55a.66.66,0,0,1,.36.11.74.74,0,0,1,.27.36,2.42,2.42,0,0,1,.16.69,7.89,7.89,0,0,1,.06,1.06,4.87,4.87,0,0,1-.22,1.71q-.22.51-.63.51h-3.55v15.72a.58.58,0,0,1-.13.38.92.92,0,0,1-.44.27,3.47,3.47,0,0,1-.84.16A12.57,12.57,0,0,1,434,356a12.23,12.23,0,0,1-1.32-.06,3.79,3.79,0,0,1-.85-.16.84.84,0,0,1-.43-.27.64.64,0,0,1-.12-.38V339.41h-2.44c-.28,0-.48-.17-.62-.51a4.93,4.93,0,0,1-.21-1.71,7.89,7.89,0,0,1,.06-1.06,2.47,2.47,0,0,1,.15-.69.68.68,0,0,1,.26-.36.7.7,0,0,1,.38-.11h2.42v-1.63a13.77,13.77,0,0,1,.39-3.47,6.15,6.15,0,0,1,1.23-2.48,5.17,5.17,0,0,1,2.13-1.49,9.18,9.18,0,0,1,4.67-.36,6.91,6.91,0,0,1,1.2.3,1.93,1.93,0,0,1,.59.31,1.06,1.06,0,0,1,.25.41,3.3,3.3,0,0,1,.14.7A10.33,10.33,0,0,1,442,328.31Z" transform="translate(-63.95 -253.14)"/><path class="cls-1" d="M456.82,337.52c0,.52,0,1-.05,1.28a3.9,3.9,0,0,1-.13.79.74.74,0,0,1-.23.39.56.56,0,0,1-.35.11,1.29,1.29,0,0,1-.4-.08l-.49-.16c-.18-.06-.38-.12-.6-.17a3.11,3.11,0,0,0-.71-.07,2.51,2.51,0,0,0-.92.18,4.07,4.07,0,0,0-.94.58,7.24,7.24,0,0,0-1,1c-.35.44-.73,1-1.14,1.61v12.11a.58.58,0,0,1-.13.38,1,1,0,0,1-.45.27,3.7,3.7,0,0,1-.83.16,12.18,12.18,0,0,1-1.33.06,12,12,0,0,1-1.33-.06,3.69,3.69,0,0,1-.84-.16.88.88,0,0,1-.44-.27.58.58,0,0,1-.13-.38V335.71a.7.7,0,0,1,.1-.38.83.83,0,0,1,.4-.27,3.32,3.32,0,0,1,.72-.17c.3,0,.68-.05,1.13-.05s.84,0,1.15.05a3,3,0,0,1,.71.17.86.86,0,0,1,.36.27.7.7,0,0,1,.1.38v2.42a15.25,15.25,0,0,1,1.44-1.8,8.28,8.28,0,0,1,1.29-1.12,4.18,4.18,0,0,1,1.21-.58,5.17,5.17,0,0,1,1.22-.16l.61,0c.22,0,.45.06.68.11a4,4,0,0,1,.61.18,1.2,1.2,0,0,1,.38.2.71.71,0,0,1,.17.24,1.79,1.79,0,0,1,.1.36,4.6,4.6,0,0,1,.06.69C456.81,336.58,456.82,337,456.82,337.52Z" transform="translate(-63.95 -253.14)"/><path class="cls-1" d="M466.09,329.14a3.06,3.06,0,0,1-.68,2.28,3.71,3.71,0,0,1-2.5.63,3.76,3.76,0,0,1-2.49-.6,3,3,0,0,1-.64-2.2,3.16,3.16,0,0,1,.66-2.3,3.65,3.65,0,0,1,2.51-.64,3.72,3.72,0,0,1,2.49.62A3,3,0,0,1,466.09,329.14Zm-.42,26a.58.58,0,0,1-.13.38.88.88,0,0,1-.44.27,3.69,3.69,0,0,1-.84.16,12,12,0,0,1-1.33.06,12.18,12.18,0,0,1-1.33-.06,3.7,3.7,0,0,1-.83-.16,1,1,0,0,1-.45-.27.58.58,0,0,1-.13-.38V335.75a.58.58,0,0,1,.13-.38,1.16,1.16,0,0,1,.45-.28,3.58,3.58,0,0,1,.83-.18,12.67,12.67,0,0,1,2.66,0,3.56,3.56,0,0,1,.84.18,1,1,0,0,1,.44.28.58.58,0,0,1,.13.38Z" transform="translate(-63.95 -253.14)"/><path class="cls-1" d="M485.83,352c0,.37,0,.69,0,.94a4.27,4.27,0,0,1-.09.64,2.23,2.23,0,0,1-.13.43,1.36,1.36,0,0,1-.34.41,4.52,4.52,0,0,1-.89.61,8,8,0,0,1-1.44.64,11.72,11.72,0,0,1-1.75.46,10.4,10.4,0,0,1-2,.18,10.69,10.69,0,0,1-4-.7,7.47,7.47,0,0,1-2.9-2.06,8.89,8.89,0,0,1-1.78-3.32,15.28,15.28,0,0,1-.6-4.48,15.68,15.68,0,0,1,.73-5,9.65,9.65,0,0,1,2-3.51,8.1,8.1,0,0,1,3.09-2.07,11,11,0,0,1,3.92-.68,8.67,8.67,0,0,1,1.7.16,9.24,9.24,0,0,1,1.57.41,8,8,0,0,1,1.31.59,3.77,3.77,0,0,1,.81.56,2.41,2.41,0,0,1,.34.4,1.14,1.14,0,0,1,.15.43,4.47,4.47,0,0,1,.09.64c0,.26,0,.56,0,.93a5.17,5.17,0,0,1-.21,1.77q-.22.51-.57.51a1.32,1.32,0,0,1-.78-.3c-.28-.21-.61-.43-1-.68a7.72,7.72,0,0,0-1.35-.67,5.07,5.07,0,0,0-1.88-.31,3.72,3.72,0,0,0-3.26,1.65,8.52,8.52,0,0,0-1.13,4.82,12,12,0,0,0,.28,2.76,5.83,5.83,0,0,0,.84,2,3.51,3.51,0,0,0,1.39,1.21,4.44,4.44,0,0,0,2,.4,5.24,5.24,0,0,0,1.95-.33,8.53,8.53,0,0,0,1.42-.75c.41-.28.75-.53,1-.76a1.19,1.19,0,0,1,.69-.33.47.47,0,0,1,.33.11.71.71,0,0,1,.21.4,5.13,5.13,0,0,1,.12.75C485.81,351.16,485.83,351.56,485.83,352Z" transform="translate(-63.95 -253.14)"/><path class="cls-1" d="M506.07,355.19a.58.58,0,0,1-.22.48,1.4,1.4,0,0,1-.68.25,9.49,9.49,0,0,1-1.39.08,9.38,9.38,0,0,1-1.42-.08,1.16,1.16,0,0,1-.63-.25.66.66,0,0,1-.19-.48v-1.54a8.87,8.87,0,0,1-2.73,2,7.91,7.91,0,0,1-3.4.72,9.46,9.46,0,0,1-2.84-.41,6.22,6.22,0,0,1-2.25-1.19,5.46,5.46,0,0,1-1.47-2,6.88,6.88,0,0,1-.52-2.75,6.08,6.08,0,0,1,.67-2.94,5.3,5.3,0,0,1,2-2.07,9.66,9.66,0,0,1,3.27-1.21,23.53,23.53,0,0,1,4.55-.39h1.89v-1.18a6.35,6.35,0,0,0-.18-1.6,2.73,2.73,0,0,0-.61-1.14,2.49,2.49,0,0,0-1.13-.67,5.87,5.87,0,0,0-1.75-.22,9.13,9.13,0,0,0-2.45.3,15,15,0,0,0-1.91.68c-.55.24-1,.47-1.38.67a2,2,0,0,1-.9.31.64.64,0,0,1-.43-.16,1.1,1.1,0,0,1-.3-.43,3.33,3.33,0,0,1-.19-.7,6.32,6.32,0,0,1-.06-.91,3.85,3.85,0,0,1,.11-1.07,1.71,1.71,0,0,1,.41-.71,3.94,3.94,0,0,1,1.07-.69,12.21,12.21,0,0,1,1.78-.71,16.59,16.59,0,0,1,2.23-.53,16.22,16.22,0,0,1,6.4.24,6.5,6.5,0,0,1,2.67,1.37,5.26,5.26,0,0,1,1.52,2.38,11.12,11.12,0,0,1,.48,3.46Zm-5.38-8.31H498.6a11.35,11.35,0,0,0-2.26.19,4.35,4.35,0,0,0-1.52.59,2.43,2.43,0,0,0-.86.95,2.86,2.86,0,0,0-.27,1.27,2.45,2.45,0,0,0,.77,1.92,3.09,3.09,0,0,0,2.14.69,3.92,3.92,0,0,0,2.12-.59,8.56,8.56,0,0,0,2-1.71Z" transform="translate(-63.95 -253.14)"/><path class="cls-1" d="M538.15,355.19a.6.6,0,0,1-.21.48,1.49,1.49,0,0,1-.69.25,9.24,9.24,0,0,1-1.38.08,9.44,9.44,0,0,1-1.43-.08,1.16,1.16,0,0,1-.63-.25.66.66,0,0,1-.19-.48v-1.54a8.75,8.75,0,0,1-2.73,2,7.88,7.88,0,0,1-3.4.72,9.46,9.46,0,0,1-2.84-.41,6.17,6.17,0,0,1-2.24-1.19,5.34,5.34,0,0,1-1.47-2,6.71,6.71,0,0,1-.53-2.75,6.19,6.19,0,0,1,.67-2.94,5.3,5.3,0,0,1,2-2.07,9.72,9.72,0,0,1,3.28-1.21,23.42,23.42,0,0,1,4.54-.39h1.9v-1.18a6.32,6.32,0,0,0-.19-1.6,2.73,2.73,0,0,0-.61-1.14,2.49,2.49,0,0,0-1.13-.67,5.87,5.87,0,0,0-1.75-.22,9.13,9.13,0,0,0-2.45.3,14.27,14.27,0,0,0-1.9.68c-.56.24-1,.47-1.39.67a2,2,0,0,1-.9.31.6.6,0,0,1-.42-.16,1,1,0,0,1-.31-.43,2.84,2.84,0,0,1-.18-.7,5.1,5.1,0,0,1-.07-.91,4.28,4.28,0,0,1,.11-1.07,1.71,1.71,0,0,1,.41-.71,4.11,4.11,0,0,1,1.07-.69,12.21,12.21,0,0,1,1.78-.71,17,17,0,0,1,2.23-.53,16.22,16.22,0,0,1,6.4.24,6.44,6.44,0,0,1,2.67,1.37,5.26,5.26,0,0,1,1.52,2.38,11.12,11.12,0,0,1,.48,3.46Zm-5.37-8.31h-2.09a11.39,11.39,0,0,0-2.27.19,4.35,4.35,0,0,0-1.52.59,2.43,2.43,0,0,0-.86.95,2.86,2.86,0,0,0-.27,1.27,2.45,2.45,0,0,0,.77,1.92,3.11,3.11,0,0,0,2.14.69,4,4,0,0,0,2.13-.59,9,9,0,0,0,2-1.71Z" transform="translate(-63.95 -253.14)"/><path class="cls-1" d="M562.16,355.13a.65.65,0,0,1-.13.38.92.92,0,0,1-.44.27,3.47,3.47,0,0,1-.84.16,11.91,11.91,0,0,1-1.31.06,12.25,12.25,0,0,1-1.34-.06,3.58,3.58,0,0,1-.84-.16.89.89,0,0,1-.43-.27.58.58,0,0,1-.13-.38V344.05a9.13,9.13,0,0,0-.21-2.22,4.36,4.36,0,0,0-.6-1.38,2.65,2.65,0,0,0-1-.9,3.16,3.16,0,0,0-1.45-.31,3.62,3.62,0,0,0-2.11.76,11.58,11.58,0,0,0-2.22,2.22v12.91a.58.58,0,0,1-.13.38,1,1,0,0,1-.45.27,3.7,3.7,0,0,1-.83.16,12.18,12.18,0,0,1-1.33.06,12,12,0,0,1-1.33-.06,3.69,3.69,0,0,1-.84-.16.88.88,0,0,1-.44-.27.58.58,0,0,1-.13-.38V335.71a.7.7,0,0,1,.1-.38.83.83,0,0,1,.4-.27,3.29,3.29,0,0,1,.73-.17,11.17,11.17,0,0,1,1.12-.05c.46,0,.84,0,1.15.05a3,3,0,0,1,.71.17.86.86,0,0,1,.36.27.7.7,0,0,1,.11.38V338a12.25,12.25,0,0,1,3.27-2.61,7.41,7.41,0,0,1,3.47-.87,7.74,7.74,0,0,1,3.34.65,5.87,5.87,0,0,1,2.2,1.78,7.26,7.26,0,0,1,1.21,2.62,15.13,15.13,0,0,1,.37,3.61Z" transform="translate(-63.95 -253.14)"/><path class="cls-1" d="M586,355.13a.72.72,0,0,1-.11.4.78.78,0,0,1-.37.27,2.63,2.63,0,0,1-.71.15c-.3,0-.66.05-1.1.05a11.24,11.24,0,0,1-1.13-.05,2.92,2.92,0,0,1-.71-.15.84.84,0,0,1-.39-.27.65.65,0,0,1-.12-.4V353a12.28,12.28,0,0,1-3.14,2.5,7.48,7.48,0,0,1-3.65.9,7.59,7.59,0,0,1-3.75-.86,7.35,7.35,0,0,1-2.51-2.32,10.16,10.16,0,0,1-1.4-3.41,18.74,18.74,0,0,1-.43-4.1A18,18,0,0,1,567,341a10.49,10.49,0,0,1,1.62-3.52,7.21,7.21,0,0,1,2.66-2.25,8.17,8.17,0,0,1,3.65-.78,6.54,6.54,0,0,1,3,.66,10.8,10.8,0,0,1,2.64,1.95V326.57a.67.67,0,0,1,.12-.39.86.86,0,0,1,.43-.3,4.15,4.15,0,0,1,.84-.18,12.67,12.67,0,0,1,2.66,0,3.92,3.92,0,0,1,.82.18,1,1,0,0,1,.44.3.61.61,0,0,1,.13.39Zm-5.44-13a12.3,12.3,0,0,0-2.26-2.26,3.75,3.75,0,0,0-2.25-.78,3.14,3.14,0,0,0-1.84.53,3.93,3.93,0,0,0-1.24,1.43,7.41,7.41,0,0,0-.69,2,10.48,10.48,0,0,0-.23,2.25,14.21,14.21,0,0,0,.19,2.37,7.32,7.32,0,0,0,.65,2.06,3.93,3.93,0,0,0,1.18,1.45,3.09,3.09,0,0,0,1.87.54,3.66,3.66,0,0,0,1.1-.16,4.09,4.09,0,0,0,1.09-.54,7.27,7.27,0,0,0,1.14-1q.59-.6,1.29-1.47Z" transform="translate(-63.95 -253.14)"/><path class="cls-1" d="M624.45,332.08c0,.42,0,.78-.05,1.08a3.22,3.22,0,0,1-.16.73.69.69,0,0,1-.24.38.47.47,0,0,1-.33.11,2.13,2.13,0,0,1-.92-.39,14.87,14.87,0,0,0-1.67-.85,20.46,20.46,0,0,0-2.49-.85,13.06,13.06,0,0,0-3.37-.39,9.39,9.39,0,0,0-3.7.71,8.14,8.14,0,0,0-2.83,2,9,9,0,0,0-1.8,3.11,12.28,12.28,0,0,0-.63,4,12.89,12.89,0,0,0,.64,4.26,8.57,8.57,0,0,0,1.79,3.08,7.5,7.5,0,0,0,2.78,1.87,9.79,9.79,0,0,0,3.58.63,8,8,0,0,0,1.89-.22,6.58,6.58,0,0,0,1.74-.65v-6.53h-5.33c-.26,0-.46-.17-.61-.49a4.61,4.61,0,0,1-.22-1.67,7.36,7.36,0,0,1,.06-1,2.27,2.27,0,0,1,.16-.66A.9.9,0,0,1,613,340a.55.55,0,0,1,.35-.12h9.51a1.52,1.52,0,0,1,.62.12,1.38,1.38,0,0,1,.48.36,1.76,1.76,0,0,1,.32.57,2.65,2.65,0,0,1,.11.77v11.21a2.74,2.74,0,0,1-.23,1.15,1.7,1.7,0,0,1-.94.77c-.47.19-1.05.38-1.75.59s-1.42.37-2.17.52-1.5.25-2.26.33-1.53.11-2.3.11a17.76,17.76,0,0,1-6-1,12.24,12.24,0,0,1-4.51-2.81,12.11,12.11,0,0,1-2.83-4.48,17.32,17.32,0,0,1-1-6,17.6,17.6,0,0,1,1-6.22,13.41,13.41,0,0,1,3-4.68,12.83,12.83,0,0,1,4.63-2.94,16.79,16.79,0,0,1,6-1,21.1,21.1,0,0,1,3.33.25,19.26,19.26,0,0,1,2.62.61,9.82,9.82,0,0,1,1.86.78,4.63,4.63,0,0,1,1,.71,1.93,1.93,0,0,1,.42.86A7.57,7.57,0,0,1,624.45,332.08Z" transform="translate(-63.95 -253.14)"/><path class="cls-1" d="M648.35,355.13a.7.7,0,0,1-.11.38.76.76,0,0,1-.38.27,2.76,2.76,0,0,1-.72.16A8.67,8.67,0,0,1,646,356a8.91,8.91,0,0,1-1.16-.06,2.59,2.59,0,0,1-.71-.16.73.73,0,0,1-.37-.27.7.7,0,0,1-.11-.38v-2.25a12.14,12.14,0,0,1-3.28,2.62,7.36,7.36,0,0,1-3.45.87,7.68,7.68,0,0,1-3.36-.66,5.86,5.86,0,0,1-2.2-1.78,7.38,7.38,0,0,1-1.19-2.62,16.15,16.15,0,0,1-.36-3.71V335.71a.64.64,0,0,1,.12-.38.84.84,0,0,1,.43-.27,4.36,4.36,0,0,1,.85-.17c.36,0,.79-.05,1.32-.05s1,0,1.33.05a4.27,4.27,0,0,1,.83.17,1,1,0,0,1,.45.27.58.58,0,0,1,.13.38v11a10.48,10.48,0,0,0,.2,2.33,4.14,4.14,0,0,0,.59,1.38,2.68,2.68,0,0,0,1,.89,3.12,3.12,0,0,0,1.44.32,3.6,3.6,0,0,0,2.11-.76,12.88,12.88,0,0,0,2.25-2.22V335.71a.64.64,0,0,1,.12-.38.84.84,0,0,1,.43-.27,4.24,4.24,0,0,1,.84-.17c.35,0,.79-.05,1.33-.05s1,0,1.33.05a4,4,0,0,1,.82.17.92.92,0,0,1,.44.27.58.58,0,0,1,.13.38Z" transform="translate(-63.95 -253.14)"/><path class="cls-1" d="M659.34,355.13a.58.58,0,0,1-.13.38,1,1,0,0,1-.45.27,3.69,3.69,0,0,1-.84.16,11.85,11.85,0,0,1-1.32.06,12,12,0,0,1-1.33-.06,3.69,3.69,0,0,1-.84-.16.88.88,0,0,1-.44-.27.58.58,0,0,1-.13-.38V326.5a.63.63,0,0,1,.13-.39,1,1,0,0,1,.44-.29,4.07,4.07,0,0,1,.84-.19,12,12,0,0,1,1.33-.06,11.85,11.85,0,0,1,1.32.06,4.07,4.07,0,0,1,.84.19,1.06,1.06,0,0,1,.45.29.63.63,0,0,1,.13.39Z" transform="translate(-63.95 -253.14)"/><path class="cls-1" d="M676.51,328.31a9.14,9.14,0,0,1,0,1,2.18,2.18,0,0,1-.13.59.58.58,0,0,1-.2.28.41.41,0,0,1-.24.08.88.88,0,0,1-.33-.08l-.46-.16a6,6,0,0,0-.64-.16,4.45,4.45,0,0,0-.87-.08,2.44,2.44,0,0,0-1,.19,1.64,1.64,0,0,0-.7.58,2.81,2.81,0,0,0-.42,1.05,8.66,8.66,0,0,0-.13,1.58V335h3.55a.66.66,0,0,1,.36.11.74.74,0,0,1,.27.36,2.76,2.76,0,0,1,.17.69,10.32,10.32,0,0,1,.05,1.06,4.64,4.64,0,0,1-.22,1.71.68.68,0,0,1-.63.51h-3.55v15.72a.58.58,0,0,1-.13.38.89.89,0,0,1-.43.27,3.68,3.68,0,0,1-.85.16,12.44,12.44,0,0,1-1.33.06,12.23,12.23,0,0,1-1.32-.06,3.91,3.91,0,0,1-.85-.16.84.84,0,0,1-.43-.27.64.64,0,0,1-.12-.38V339.41h-2.44c-.27,0-.48-.17-.62-.51a4.93,4.93,0,0,1-.21-1.71,7.89,7.89,0,0,1,.06-1.06,3.47,3.47,0,0,1,.15-.69.73.73,0,0,1,.26-.36.7.7,0,0,1,.38-.11h2.42v-1.63a13.77,13.77,0,0,1,.39-3.47,6.15,6.15,0,0,1,1.23-2.48,5.17,5.17,0,0,1,2.13-1.49,8.38,8.38,0,0,1,3.06-.51,8.23,8.23,0,0,1,1.61.15,6.91,6.91,0,0,1,1.2.3,1.81,1.81,0,0,1,.59.31,1.06,1.06,0,0,1,.25.41,3.3,3.3,0,0,1,.14.7A10.33,10.33,0,0,1,676.51,328.31Z" transform="translate(-63.95 -253.14)"/><path class="cls-1" d="M709.7,347.42a8.31,8.31,0,0,1-.41,2.72,7.42,7.42,0,0,1-1.14,2.16,7.63,7.63,0,0,1-1.74,1.61,10.32,10.32,0,0,1-2.23,1.11,14.12,14.12,0,0,1-2.6.64,20.71,20.71,0,0,1-3.08.21H691a1.81,1.81,0,0,1-1.21-.43,1.72,1.72,0,0,1-.49-1.38V329.51a1.72,1.72,0,0,1,.49-1.38,1.76,1.76,0,0,1,1.21-.43h7.07a18.93,18.93,0,0,1,4.39.44,8.71,8.71,0,0,1,3,1.31,6,6,0,0,1,1.89,2.23,7.31,7.31,0,0,1,.65,3.18,7.09,7.09,0,0,1-.26,1.93,6,6,0,0,1-.76,1.64,5.88,5.88,0,0,1-1.23,1.31,6.1,6.1,0,0,1-1.67.91,7.6,7.6,0,0,1,2.21.76,6.18,6.18,0,0,1,1.76,1.41,6.49,6.49,0,0,1,1.19,2A7.29,7.29,0,0,1,709.7,347.42Zm-7.4-11.86A4,4,0,0,0,702,334a2.74,2.74,0,0,0-.78-1.13,3.74,3.74,0,0,0-1.32-.68,7.54,7.54,0,0,0-2.12-.24h-2.89v7.31h3.2a5.67,5.67,0,0,0,2-.29,3.56,3.56,0,0,0,1.23-.81,3.39,3.39,0,0,0,.73-1.19A4.63,4.63,0,0,0,702.3,335.56Zm1.46,12.06a4.64,4.64,0,0,0-.32-1.76,3.42,3.42,0,0,0-1-1.29,4.43,4.43,0,0,0-1.61-.81,9.78,9.78,0,0,0-2.55-.28h-3.39v8h4.13a6.91,6.91,0,0,0,2-.25,4.13,4.13,0,0,0,1.41-.74,3.45,3.45,0,0,0,.94-1.22A4,4,0,0,0,703.76,347.62Z" transform="translate(-63.95 -253.14)"/><path class="cls-1" d="M730.51,355.19a.6.6,0,0,1-.21.48,1.49,1.49,0,0,1-.69.25,9.24,9.24,0,0,1-1.38.08,9.44,9.44,0,0,1-1.43-.08,1.16,1.16,0,0,1-.63-.25.66.66,0,0,1-.19-.48v-1.54a8.75,8.75,0,0,1-2.73,2,7.88,7.88,0,0,1-3.4.72A9.46,9.46,0,0,1,717,356a6.17,6.17,0,0,1-2.24-1.19,5.34,5.34,0,0,1-1.47-2,6.71,6.71,0,0,1-.53-2.75,6.19,6.19,0,0,1,.67-2.94,5.3,5.3,0,0,1,2-2.07,9.72,9.72,0,0,1,3.28-1.21,23.42,23.42,0,0,1,4.54-.39h1.9v-1.18a6.32,6.32,0,0,0-.19-1.6,2.73,2.73,0,0,0-.61-1.14,2.49,2.49,0,0,0-1.13-.67,5.87,5.87,0,0,0-1.75-.22,9.13,9.13,0,0,0-2.45.3,14.27,14.27,0,0,0-1.9.68c-.56.24-1,.47-1.39.67a2,2,0,0,1-.9.31.6.6,0,0,1-.42-.16,1,1,0,0,1-.31-.43,2.84,2.84,0,0,1-.18-.7,5.1,5.1,0,0,1-.07-.91,4.28,4.28,0,0,1,.11-1.07,1.71,1.71,0,0,1,.41-.71,4.11,4.11,0,0,1,1.07-.69,12.21,12.21,0,0,1,1.78-.71,17,17,0,0,1,2.23-.53,16.22,16.22,0,0,1,6.4.24,6.44,6.44,0,0,1,2.67,1.37,5.26,5.26,0,0,1,1.52,2.38,11.12,11.12,0,0,1,.48,3.46Zm-5.37-8.31h-2.09a11.39,11.39,0,0,0-2.27.19,4.35,4.35,0,0,0-1.52.59,2.43,2.43,0,0,0-.86.95,2.86,2.86,0,0,0-.27,1.27,2.45,2.45,0,0,0,.77,1.92,3.11,3.11,0,0,0,2.14.69,4,4,0,0,0,2.13-.59,9,9,0,0,0,2-1.71Z" transform="translate(-63.95 -253.14)"/><path class="cls-1" d="M754.52,355.13a.65.65,0,0,1-.13.38.92.92,0,0,1-.44.27,3.47,3.47,0,0,1-.84.16,11.91,11.91,0,0,1-1.31.06,12.25,12.25,0,0,1-1.34-.06,3.58,3.58,0,0,1-.84-.16.89.89,0,0,1-.43-.27.58.58,0,0,1-.13-.38V344.05a9.13,9.13,0,0,0-.21-2.22,4.36,4.36,0,0,0-.6-1.38,2.65,2.65,0,0,0-1-.9,3.16,3.16,0,0,0-1.45-.31,3.62,3.62,0,0,0-2.11.76,11.58,11.58,0,0,0-2.22,2.22v12.91a.58.58,0,0,1-.13.38,1,1,0,0,1-.45.27,3.7,3.7,0,0,1-.83.16,12.18,12.18,0,0,1-1.33.06,12,12,0,0,1-1.33-.06,3.69,3.69,0,0,1-.84-.16.88.88,0,0,1-.44-.27.58.58,0,0,1-.13-.38V335.71a.7.7,0,0,1,.1-.38.83.83,0,0,1,.4-.27,3.29,3.29,0,0,1,.73-.17,11.17,11.17,0,0,1,1.12-.05c.46,0,.84,0,1.15.05a3,3,0,0,1,.71.17.86.86,0,0,1,.36.27.7.7,0,0,1,.11.38V338a12.25,12.25,0,0,1,3.27-2.61,7.41,7.41,0,0,1,3.47-.87,7.74,7.74,0,0,1,3.34.65,5.87,5.87,0,0,1,2.2,1.78,7.26,7.26,0,0,1,1.21,2.62,15.13,15.13,0,0,1,.37,3.61Z" transform="translate(-63.95 -253.14)"/><path class="cls-1" d="M777.94,355.15a.64.64,0,0,1-.12.38.87.87,0,0,1-.44.26,3.75,3.75,0,0,1-.86.15,13.29,13.29,0,0,1-1.41.06c-.6,0-1.08,0-1.45-.05a4.73,4.73,0,0,1-.91-.14,1.27,1.27,0,0,1-.56-.27,1.92,1.92,0,0,1-.35-.46l-6.46-10.23v10.28a.58.58,0,0,1-.13.38,1,1,0,0,1-.45.27,3.7,3.7,0,0,1-.83.16,12.18,12.18,0,0,1-1.33.06,12,12,0,0,1-1.33-.06,3.69,3.69,0,0,1-.84-.16.88.88,0,0,1-.44-.27.58.58,0,0,1-.13-.38V326.5a.63.63,0,0,1,.13-.39,1,1,0,0,1,.44-.29,4.07,4.07,0,0,1,.84-.19,12,12,0,0,1,1.33-.06,12.18,12.18,0,0,1,1.33.06,4.11,4.11,0,0,1,.83.19,1.06,1.06,0,0,1,.45.29.63.63,0,0,1,.13.39v17.05l5.75-7.73a2.16,2.16,0,0,1,.39-.46,1.47,1.47,0,0,1,.57-.3,5.37,5.37,0,0,1,.9-.17c.35,0,.8-.05,1.36-.05s1,0,1.36.05a4.86,4.86,0,0,1,.89.17,1,1,0,0,1,.47.27.66.66,0,0,1,.13.4,1.9,1.9,0,0,1-.16.7,3.5,3.5,0,0,1-.5.78l-5.68,6.45,6.58,10.16a5.3,5.3,0,0,1,.38.75A1.63,1.63,0,0,1,777.94,355.15Z" transform="translate(-63.95 -253.14)"/><path class="cls-1" d="M434.46,306.35h-1.12a11.71,11.71,0,0,1-8.43-3.35,10.86,10.86,0,0,1-3.31-5.85h-5.8c-3.27,0-5.51,2.28-5.51,5.89a5,5,0,0,0,1.6,3.87,5.61,5.61,0,0,0,3.91,1.51H421v5h-3.44q-5.35,0-8.51-2.46c-2.37-1.89-3.57-4.6-3.57-8.16s1-6.28,3-8.13a9.94,9.94,0,0,1,7.13-2.49h5.29c-.82-4.77-3.31-6.75-7.52-6.75a6.94,6.94,0,0,0-3.36.69V282a9.34,9.34,0,0,1,3.7-.73c7.27,0,11.39,3.65,12.38,11.95.39,3.14,1.42,5.37,3.18,6.75a6.28,6.28,0,0,0,4.09,1.46h1.12Zm-14.71-1.16H415v-4.77h4.73Z" transform="translate(-63.95 -253.14)"/><path class="cls-1" d="M437.46,315.77h-4.72V311h4.72Zm15.31-9.42H433v-4.9h4.6a3,3,0,0,0,2.92-1.46,7.45,7.45,0,0,0,.52-3.27v-9.89h4.77v9.63c0,2.54-.34,4.17-1.07,5h8.08Zm-7.18,9.42h-4.73V311h4.73Z" transform="translate(-63.95 -253.14)"/><path class="cls-1" d="M471.3,306.35H451.61v-4.9h4.47A2.91,2.91,0,0,0,459,300a7.6,7.6,0,0,0,.52-3.27v-18.1h4.77v17.84c0,2.54-.34,4.17-1,5h8.08Z" transform="translate(-63.95 -253.14)"/><path class="cls-1" d="M504.66,306.35H470.14v-4.9H495a10.62,10.62,0,0,0-2.24-6.84,9,9,0,0,0-7.39-3.26,9.51,9.51,0,0,0-3.61.81,10.52,10.52,0,0,0-3.87,2.71c-.48-.9-1.25-2.15-2.32-3.78a15.9,15.9,0,0,1,4.6-3,14.12,14.12,0,0,1,5.67-1.21,14.59,14.59,0,0,1,7.82,2.07c3.92,2.4,6.07,6.57,6.45,12.55h4.56Zm-16.55-23.56h-4.73V278h4.73Z" transform="translate(-63.95 -253.14)"/><path class="cls-1" d="M515.62,298.57c0,5.2-2.4,7.78-7.22,7.78h-5.07v-4.9h4.08c1.59,0,2.58-.47,3-1.42a9.15,9.15,0,0,0,.35-3.09V278.62h4.81Z" transform="translate(-63.95 -253.14)"/><path class="cls-1" d="M524.82,306.35h-4.77V278.58h4.77Z" transform="translate(-63.95 -253.14)"/><path class="cls-1" d="M547.39,305.75c0,5.12-3.09,7.7-9.33,7.7v-3.83c3-.09,4.52-2.11,4.6-5.46-.81,1.46-2.36,2.19-4.55,2.19-5.55,0-9.25-4.08-9.25-9.8s3.83-9.76,9.25-9.76c5.67,0,9.28,4.21,9.28,9.89Zm-4.94-9c0-3.35-1.81-5.58-4.56-5.58-2.53,0-4.21,2.45-4.21,5.37s1.81,5.46,4.43,5.46S542.45,299.6,542.45,296.76Z" transform="translate(-63.95 -253.14)"/><path class="cls-1" d="M574.82,306.35h-5.63a6.51,6.51,0,0,1-5.33-2.23,8.38,8.38,0,0,1-1.72-5.59V278.62h4.77v18c0,2.11.47,3.48,1.38,4.13a6.71,6.71,0,0,0,3.69.73h2.84Z" transform="translate(-63.95 -253.14)"/><path class="cls-1" d="M577.7,315.77H573V311h4.73ZM593,306.35H573.19v-4.9h4.6a3,3,0,0,0,2.92-1.46,7.6,7.6,0,0,0,.52-3.27v-9.89H586v9.63c0,2.54-.35,4.17-1.08,5H593Zm-7.18,9.42H581.1V311h4.73Z" transform="translate(-63.95 -253.14)"/><path class="cls-1" d="M621,306.35h-4.77c-4.13,0-7.31-.77-9.59-2.36-2.23,1.59-5.42,2.36-9.5,2.36H591.8v-4.9h5a10.22,10.22,0,0,0,4-.47,10.28,10.28,0,0,1-3.18-4,10.67,10.67,0,0,1-1-4.47,7.87,7.87,0,0,1,.52-3,9.94,9.94,0,0,1,9.45-6.62c4.86,0,10,3.31,10,9.42a10.55,10.55,0,0,1-1,4.56,10.23,10.23,0,0,1-3.14,4c.47.3,1.81.47,4,.47H621Zm-16.12-26.74H600.1V274.8h4.73Zm4.43,18a6.38,6.38,0,0,0,2.83-5.5,5.48,5.48,0,1,0-11,0,6.48,6.48,0,0,0,2.84,5.5,18.18,18.18,0,0,0,2.66,1.6A18.65,18.65,0,0,0,609.26,297.62Zm3.74-18h-4.73V274.8H613Z" transform="translate(-63.95 -253.14)"/><path class="cls-1" d="M623.75,315.77H619V311h4.73Zm8.25-17.2c0,5.2-2.41,7.78-7.18,7.78h-5.07v-4.9h4c1.59,0,2.58-.47,3.05-1.42a9.23,9.23,0,0,0,.34-3.09V286.83H632Zm-.13,17.2h-4.73V311h4.73Z" transform="translate(-63.95 -253.14)"/><path class="cls-1" d="M653.37,306.35h-7.7c-.73,4.6-4.64,7.14-10.49,7.14v-4.13c4,0,6-2,6-6.1V286.83H646v14.62h7.4Z" transform="translate(-63.95 -253.14)"/><path class="cls-1" d="M676.8,296.46c0,5.68-3.87,9.89-9.63,9.89H651.86v-4.9h6.84a10.83,10.83,0,0,1-1.25-5.12c0-5.84,4-9.93,9.72-9.93S676.8,290.83,676.8,296.46Zm-4.95,0c0-3.26-2-5.67-4.86-5.67s-4.6,2.15-4.6,5.5c0,3.1,2,5.63,4.86,5.63S671.85,299.65,671.85,296.46Zm-2.36-13.67H664.8V278h4.69Z" transform="translate(-63.95 -253.14)"/><path class="cls-1" d="M687.2,276.39h-7.44v-2h1.72a6.93,6.93,0,0,1-.38-1.51,3.36,3.36,0,0,1,3.35-3.48,2.92,2.92,0,0,1,2.71,1.89l-1.55.82a1.1,1.1,0,0,0-1.2-.94,1.54,1.54,0,0,0-1.47,1.63,1.71,1.71,0,0,0,.78,1.59h3.48Zm-1.2,30h-4.78V278.58H686Z" transform="translate(-63.95 -253.14)"/><path class="cls-1" d="M742.49,306.35H712.74q-13.68,0-13.67-12.16v-7.36h4.77v7.36c0,2.79.81,4.77,2.45,5.88a10.28,10.28,0,0,0,5.89,1.38h14.61a2.9,2.9,0,0,0,2.89-1.46,7.63,7.63,0,0,0,.51-3.27v-18.1H735v17.84c0,2.54-.35,4.17-1.08,5h8.56Zm-19.91-16.72h-10.7v-2.88h2.32a5.08,5.08,0,0,1-.47-2.11,4.65,4.65,0,0,1,4.64-4.86,4,4,0,0,1,4,2.58l-2,1.38a1.79,1.79,0,0,0-1.8-1.38c-1.29,0-1.94.82-1.94,2.45a3,3,0,0,0,.6,1.94h5.42Z" transform="translate(-63.95 -253.14)"/><path class="cls-1" d="M760.71,306.35H740.85v-4.9h4.47A2.91,2.91,0,0,0,748.2,300a7.45,7.45,0,0,0,.52-3.27v-9.89h4.77v9.63c0,2.54-.34,4.17-1,5h8.25Zm-7.22-23.47h-4.73v-4.77h4.73Z" transform="translate(-63.95 -253.14)"/><path class="cls-1" d="M771.55,298.57c0,5.2-2.41,7.78-7.18,7.78h-4.64v-4.9h3.65c1.59,0,2.58-.47,3-1.42a9.15,9.15,0,0,0,.35-3.09V286.83h4.77Zm0,17.2h-4.69V311h4.69Z" transform="translate(-63.95 -253.14)"/><path class="cls-1" d="M109.25,255.8h19.1l45.59,104.81H147.88l-9-22.21H98.15l-8.74,22.21H64Zm8.88,30.5L105.4,318.86H131Z" transform="translate(-63.95 -253.14)"/><path class="cls-1" d="M274.52,353.21c-6.81,3.55-12.63,6.36-20,7.94a120.58,120.58,0,0,1-23.93,2.12,64.49,64.49,0,0,1-22.65-3.85,51.78,51.78,0,0,1-17.91-11A50.06,50.06,0,0,1,178.23,331a63.68,63.68,0,0,1,0-45.59A49.93,49.93,0,0,1,190,268a51.65,51.65,0,0,1,17.91-11,64.49,64.49,0,0,1,22.65-3.85,84,84,0,0,1,23.17,3,45.51,45.51,0,0,1,18.57,10.44L256,284.37a32.58,32.58,0,0,0-10.66-7.4q-5.93-2.52-14.8-2.52a34.26,34.26,0,0,0-13.4,2.52,30.25,30.25,0,0,0-10.29,7,30.94,30.94,0,0,0-6.58,10.73,40.83,40.83,0,0,0,0,27,31,31,0,0,0,6.58,10.66,30.25,30.25,0,0,0,10.29,7,34.26,34.26,0,0,0,13.4,2.52,49.85,49.85,0,0,0,13-1.71c8.64-2.31,10.11-4.9,11.32-6.83V317.16" transform="translate(-63.95 -253.14)"/><path class="cls-1" d="M288.28,255.8h39.08a99.13,99.13,0,0,1,13.7,1,37.84,37.84,0,0,1,12.36,3.85,23.76,23.76,0,0,1,8.88,8.07q3.4,5.19,3.4,13.77,0,8.88-5,14.73a27.22,27.22,0,0,1-13.1,8.36v.3a29.76,29.76,0,0,1,9.4,2.88,25.13,25.13,0,0,1,7.26,5.48A23.44,23.44,0,0,1,369,322a27.45,27.45,0,0,1,1.63,9.48q0,8.28-3.56,13.84a27.82,27.82,0,0,1-9.17,8.95,40.32,40.32,0,0,1-12.66,4.89,67.55,67.55,0,0,1-14,1.48H288.28Zm23.1,41.9H328.1a23.25,23.25,0,0,0,5.26-.6,14.41,14.41,0,0,0,4.66-1.92,10.05,10.05,0,0,0,3.33-3.55,10.64,10.64,0,0,0,1.26-5.33,9.69,9.69,0,0,0-1.41-5.41,9.8,9.8,0,0,0-3.62-3.33,17.39,17.39,0,0,0-5-1.7,30.64,30.64,0,0,0-5.47-.52H311.38Zm0,43.37H332.1a25.73,25.73,0,0,0,5.4-.59,14.32,14.32,0,0,0,5-2.08,11.75,11.75,0,0,0,3.63-3.85,11.06,11.06,0,0,0,1.41-5.77,9.22,9.22,0,0,0-1.86-6,11.67,11.67,0,0,0-4.66-3.48,24,24,0,0,0-6.07-1.63,44.45,44.45,0,0,0-6.07-.45H311.38Z" transform="translate(-63.95 -253.14)"/><polygon class="cls-2" points="210.57 41.33 151.71 41.3 171.62 61.22 190.69 61.21 190.69 80.29 210.57 100.17 210.57 41.33"/></svg>